<?xml version="1.0" encoding="UTF-8" standalone="no"?>
<svg
   xmlns:dc="http://purl.org/dc/elements/1.1/"
   xmlns:cc="http://creativecommons.org/ns#"
   xmlns:rdf="http://www.w3.org/1999/02/22-rdf-syntax-ns#"
   xmlns:svg="http://www.w3.org/2000/svg"
   xmlns="http://www.w3.org/2000/svg"
   xmlns:sodipodi="http://sodipodi.sourceforge.net/DTD/sodipodi-0.dtd"
   xmlns:inkscape="http://www.inkscape.org/namespaces/inkscape"
   width="0.18553099mm"
   height="0.26458332mm"
   viewBox="0 0 0.70121951 0.99999994"
   version="1.1"
   id="svg29180"
   inkscape:version="1.0.1 (3bc2e813f5, 2020-09-07)"
   sodipodi:docname="alto_clef.svg">
  <defs
     id="defs29174" />
  <sodipodi:namedview
     id="base"
     pagecolor="#ffffff"
     bordercolor="#666666"
     borderopacity="1.0"
     inkscape:pageopacity="0.0"
     inkscape:pageshadow="2"
     inkscape:zoom="256"
     inkscape:cx="-0.2996133"
     inkscape:cy="0.20547589"
     inkscape:document-units="px"
     inkscape:current-layer="layer1"
     inkscape:document-rotation="0"
     showgrid="false"
     fit-margin-top="0"
     fit-margin-left="0"
     fit-margin-right="0"
     fit-margin-bottom="0"
     inkscape:window-width="2560"
     inkscape:window-height="1361"
     inkscape:window-x="1911"
     inkscape:window-y="381"
     inkscape:window-maximized="1" />
  <metadata
     id="metadata29177">
    <rdf:RDF>
      <cc:Work
         rdf:about="">
        <dc:format>image/svg+xml</dc:format>
        <dc:type
           rdf:resource="http://purl.org/dc/dcmitype/StillImage" />
        <dc:title></dc:title>
      </cc:Work>
    </rdf:RDF>
  </metadata>
  <g
     inkscape:label="Ebene 1"
     inkscape:groupmode="layer"
     id="layer1"
     transform="translate(-114.48547,-189.14609)">
    <g
       style="fill:#000000;fill-opacity:1"
       id="g21065"
       transform="matrix(0.29498752,0,0,0.29498752,86.589574,-19.440994)">
      <g
         id="use21063"
         transform="matrix(0.26458333,0,0,0.26458333,94.566345,708.82458)">
        <path
           style="stroke:none"
           d="M 6,6.3125 C 6.945313,6.3125 7.675781,6.082031 8.1875,5.625 8.707031,5.164063 8.972656,4.503906 8.984375,3.640625 8.972656,3.210938 8.90625,2.800781 8.78125,2.40625 8.664063,2.007813 8.492188,1.660156 8.265625,1.359375 8.035156,1.066406 7.765625,0.832031 7.453125,0.65625 7.140625,0.476563 6.796875,0.382813 6.421875,0.375 6.140625,0.382813 5.882813,0.445313 5.65625,0.5625 5.425781,0.6875 5.207031,0.859375 5,1.078125 4.914063,1.078125 4.84375,1.039063 4.78125,0.96875 4.71875,0.894531 4.664063,0.796875 4.625,0.671875 4.582031,0.546875 4.550781,0.40625 4.53125,0.25 4.507813,0.101563 4.5,-0.0507813 4.5,-0.21875 4.5,-0.332031 4.507813,-0.441406 4.53125,-0.546875 4.550781,-0.660156 4.582031,-0.757813 4.625,-0.84375 4.664063,-0.925781 4.710938,-0.988281 4.765625,-1.03125 4.816406,-1.082031 4.882813,-1.113281 4.96875,-1.125 h 0.0625 c 0.34375,0.242187 0.851563,0.359375 1.53125,0.359375 0.320313,0 0.625,-0.078125 0.90625,-0.234375 0.289063,-0.164063 0.539063,-0.390625 0.75,-0.671875 0.21875,-0.289063 0.390625,-0.613281 0.515625,-0.96875 0.125,-0.363281 0.1875,-0.75 0.1875,-1.15625 0,-0.425781 -0.074219,-0.804688 -0.21875,-1.140625 C 8.554688,-5.269531 8.347656,-5.550781 8.078125,-5.78125 7.804688,-6.007813 7.484375,-6.1875 7.109375,-6.3125 6.734375,-6.4375 6.316406,-6.5 5.859375,-6.5 5.679688,-6.5 5.507813,-6.488281 5.34375,-6.46875 5.1875,-6.445313 5.03125,-6.410156 4.875,-6.359375 4.71875,-6.316406 4.570313,-6.25 4.4375,-6.15625 4.300781,-6.0625 4.175781,-5.941406 4.0625,-5.796875 3.769531,-5.410156 3.625,-4.988281 3.625,-4.53125 c 0,0.15625 0.023438,0.308594 0.078125,0.453125 C 3.753906,-3.929688 3.851563,-3.78125 4,-3.625 c 0.15625,0.15625 0.40625,0.242187 0.75,0.25 0.125,0 0.242188,-0.03125 0.359375,-0.09375 C 5.234375,-3.539063 5.34375,-3.632813 5.4375,-3.75 5.53125,-3.863281 5.601563,-3.984375 5.65625,-4.109375 5.71875,-4.242188 5.75,-4.375 5.75,-4.5 5.757813,-4.675781 5.703125,-4.832031 5.578125,-4.96875 5.460938,-5.101563 5.253906,-5.238281 4.953125,-5.375 4.753906,-5.46875 4.660156,-5.546875 4.671875,-5.609375 c 0,-0.21875 0.28125,-0.328125 0.84375,-0.328125 0.34375,0 0.628906,0.039062 0.859375,0.109375 0.238281,0.0625 0.425781,0.183594 0.5625,0.359375 0.132813,0.179687 0.234375,0.429687 0.296875,0.75 0.0625,0.324219 0.09375,0.742187 0.09375,1.25 0,0.324219 -0.027344,0.617187 -0.078125,0.875 -0.054687,0.261719 -0.136719,0.492187 -0.25,0.6875 -0.105469,0.1875 -0.230469,0.335937 -0.375,0.4375 -0.148437,0.105469 -0.3125,0.15625 -0.5,0.15625 -0.4375,0 -1.03125,-0.453125 -1.78125,-1.359375 C 4.3125,-2.335938 4.257813,-2.03125 4.1875,-1.75 4.113281,-1.476563 4.019531,-1.238281 3.90625,-1.03125 3.789063,-0.820313 3.660156,-0.660156 3.515625,-0.546875 3.378906,-0.429688 3.238281,-0.375 3.09375,-0.375 c -0.074219,0 -0.136719,-0.003906 -0.1875,-0.015625 v -6.0625 H 2.390625 V 6.25 H 2.90625 V 0.375 c 0.070313,-0.023437 0.15625,-0.03125 0.25,-0.03125 0.132813,0 0.265625,0.050781 0.390625,0.15625 0.125,0.113281 0.238281,0.269531 0.34375,0.46875 0.101563,0.195313 0.191406,0.429688 0.265625,0.703125 0.082031,0.28125 0.144531,0.582031 0.1875,0.90625 C 4.96875,1.566406 5.582031,1.0625 6.1875,1.0625 c 0.164063,0 0.320313,0.054688 0.46875,0.171875 0.144531,0.125 0.269531,0.289063 0.375,0.5 0.101563,0.207031 0.1875,0.441406 0.25,0.703125 0.0625,0.269531 0.09375,0.550781 0.09375,0.84375 0,0.5 -0.03125,0.914063 -0.09375,1.25 C 7.226563,4.863281 7.140625,5.125 7.015625,5.3125 6.898438,5.507813 6.742188,5.648438 6.546875,5.734375 c -0.199219,0.082031 -0.433594,0.125 -0.703125,0.125 -0.65625,0 -0.984375,-0.148437 -0.984375,-0.4375 0,-0.03125 0.039063,-0.078125 0.125,-0.140625 0.09375,-0.054687 0.195313,-0.125 0.3125,-0.21875 0.125,-0.085937 0.226563,-0.183594 0.3125,-0.296875 0.09375,-0.105469 0.144531,-0.230469 0.15625,-0.375 0,-0.148437 -0.03125,-0.289062 -0.09375,-0.421875 C 5.609375,3.84375 5.53125,3.726563 5.4375,3.625 5.34375,3.519531 5.234375,3.4375 5.109375,3.375 4.984375,3.320313 4.847656,3.289063 4.703125,3.28125 4.566406,3.289063 4.4375,3.328125 4.3125,3.390625 4.195313,3.460938 4.09375,3.554688 4,3.671875 3.90625,3.785156 3.832031,3.90625 3.78125,4.03125 3.726563,4.164063 3.703125,4.296875 3.703125,4.421875 c 0,0.289063 0.054688,0.550781 0.171875,0.78125 C 4,5.441406 4.164063,5.644531 4.375,5.8125 4.59375,5.976563 4.835938,6.101563 5.109375,6.1875 5.390625,6.269531 5.6875,6.3125 6,6.3125 Z M 0,-6.453125 V 6.25 H 1.59375 V -6.453125 Z m 0,0"
           id="path29753" />
      </g>
    </g>
  </g>
</svg>
