<?xml version="1.0" encoding="UTF-8" standalone="no"?>
<svg
   xmlns:dc="http://purl.org/dc/elements/1.1/"
   xmlns:cc="http://creativecommons.org/ns#"
   xmlns:rdf="http://www.w3.org/1999/02/22-rdf-syntax-ns#"
   xmlns:svg="http://www.w3.org/2000/svg"
   xmlns="http://www.w3.org/2000/svg"
   xmlns:sodipodi="http://sodipodi.sourceforge.net/DTD/sodipodi-0.dtd"
   xmlns:inkscape="http://www.inkscape.org/namespaces/inkscape"
   width="0.8741228"
   height="1"
   viewBox="0 0 0.8741228 1"
   version="1.1"
   id="svg28559"
   inkscape:version="1.0.1 (3bc2e813f5, 2020-09-07)"
   sodipodi:docname="bass_clef.svg">
  <defs
     id="defs28553" />
  <sodipodi:namedview
     id="base"
     pagecolor="#ffffff"
     bordercolor="#666666"
     borderopacity="1.0"
     inkscape:pageopacity="0.0"
     inkscape:pageshadow="2"
     inkscape:zoom="253.42707"
     inkscape:cx="0.89808849"
     inkscape:cy="0.52121799"
     inkscape:document-units="px"
     inkscape:current-layer="svg28559"
     inkscape:document-rotation="0"
     showgrid="false"
     units="px"
     fit-margin-top="0"
     fit-margin-left="0"
     fit-margin-right="0"
     fit-margin-bottom="0"
     inkscape:window-width="2560"
     inkscape:window-height="1361"
     inkscape:window-x="1911"
     inkscape:window-y="381"
     inkscape:window-maximized="1" />
  <metadata
     id="metadata28556">
    <rdf:RDF>
      <cc:Work
         rdf:about="">
        <dc:format>image/svg+xml</dc:format>
        <dc:type
           rdf:resource="http://purl.org/dc/dcmitype/StillImage" />
        <dc:title></dc:title>
      </cc:Work>
    </rdf:RDF>
  </metadata>
  <path
     style="fill:#000000;fill-opacity:1;stroke:none;stroke-width:0.0946597"
     d="m 0.00295594,0.9717431 c 7.4e-4,0.0185 0.0137,0.0281 0.0385,0.0281 0.0126,7.4e-4 0.0274,-0.001 0.0444,-0.006 0.0166,-0.004 0.0355,-0.01 0.0562,-0.0177 0.0215,-0.007 0.0436,-0.0163 0.0666,-0.0281 0.0237,-0.0111 0.0473,-0.0237 0.071,-0.0384 0.0237,-0.0141 0.0473,-0.0296 0.071,-0.0473 0.0244,-0.017 0.0477,-0.0351 0.0695,-0.0547 0.0214,-0.0189 0.0418,-0.0396 0.0606,-0.0621 0.0185,-0.0218 0.0359,-0.0444 0.0518,-0.068 0.0226,-0.0355 0.0414,-0.068 0.0562,-0.0976 0.0155,-0.0288 0.0281,-0.0555 0.037,-0.0799 0.009,-0.0248 0.0152,-0.0488 0.0192,-0.0725 0.004,-0.0237 0.006,-0.0481 0.006,-0.0725 7.4e-4,-0.0407 -0.003,-0.0758 -0.0118,-0.10649 -0.009,-0.0314 -0.0178,-0.0566 -0.0266,-0.0754 -0.009,-0.0196 -0.0237,-0.0421 -0.0444,-0.068 -0.02,-0.0266 -0.0529,-0.0503 -0.0991,-0.071 -0.0466,-0.0214 -0.10465,-0.0329 -0.17453,-0.0340000017 -0.0396,0 -0.0769,0.007000002 -0.11241,0.0192000017 -0.0355,0.0129 -0.0673,0.0307 -0.0947,0.0532 -0.0266,0.0229 -0.0481,0.0496 -0.0636,0.0799 -0.0159,0.0307 -0.023699997,0.0636 -0.023699997,0.0991 0,0.0237 0.001999997,0.0459 0.006999997,0.0666 0.006,0.0207 0.0141,0.0388 0.0251,0.0547 0.0118,0.0155 0.0251,0.0281 0.0399,0.037 0.0155,0.009 0.0333,0.0133 0.0532,0.0133 0.0373,0 0.0643,-0.01 0.0813,-0.0281 0.0177,-0.0188 0.0296,-0.0366 0.0355,-0.0532 0.007,-0.0159 0.0103,-0.0336 0.0103,-0.0533 0,-0.0126 -0.003,-0.0251 -0.007,-0.037 -0.005,-0.0126 -0.0118,-0.024 -0.0207,-0.034 -0.008,-0.01 -0.0177,-0.017 -0.0296,-0.0222 -0.0111,-0.006 -0.0229,-0.009 -0.0355,-0.0103 -0.0129,0.001 -0.0248,0.004 -0.0355,0.007 -0.0111,0.004 -0.0203,0.009 -0.0281,0.0133 -0.007,0.005 -0.0126,0.01 -0.0163,0.0133 -0.004,0.004 -0.006,0.006 -0.004,0.006 -0.006,0 -0.009,-0.007 -0.007,-0.0207 0,-0.0196 0.005,-0.0392 0.0163,-0.0592 0.0118,-0.0207 0.0274,-0.0388 0.0473,-0.0547 0.0196,-0.0155 0.0414,-0.0281 0.0651,-0.037 0.0244,-0.01 0.0492,-0.0148 0.0739,-0.0148 0.0344,0 0.0654,0.007 0.0932,0.0207 0.0274,0.014 0.051,0.0333 0.071,0.0577 0.0196,0.0237 0.0344,0.0518 0.0444,0.0843 0.0107,0.0318 0.0163,0.0691 0.0163,0.11241 0,0.0433 -0.007,0.0895 -0.0207,0.13903 -0.0129,0.0492 -0.0322,0.098 -0.0577,0.14642 -0.0248,0.0481 -0.0547,0.095 -0.0902,0.14051 -0.0355,0.0451 -0.0754,0.0876 -0.11981,0.1272 -0.0473,0.0422 -0.11536,0.0773 -0.20411,0.10502 z m 0.74989,-0.81644 c 0,0.0177 0.005,0.0322 0.0163,0.0429 0.0118,0.0111 0.0266,0.017 0.0444,0.0178 0.0166,-7.4e-4 0.0303,-0.007 0.0414,-0.0178 0.0118,-0.0107 0.0181,-0.0251 0.0192,-0.0429 -0.001,-0.0166 -0.007,-0.0303 -0.0192,-0.0414 -0.0111,-0.0118 -0.0248,-0.0181 -0.0414,-0.0192 -0.0178,0.001 -0.0325,0.007 -0.0444,0.0192 -0.0111,0.0111 -0.0163,0.0248 -0.0163,0.0414 z m 0,0.30024 c 0,0.0178 0.005,0.0318 0.0163,0.0429 0.0118,0.0107 0.0266,0.0166 0.0444,0.0178 0.0166,-0.001 0.0303,-0.007 0.0414,-0.0178 0.0118,-0.0111 0.0181,-0.0251 0.0192,-0.0429 -0.001,-0.017 -0.007,-0.0311 -0.0192,-0.0429 -0.0111,-0.0111 -0.0248,-0.0163 -0.0414,-0.0163 -0.0178,0 -0.0325,0.005 -0.0444,0.0163 -0.0111,0.0118 -0.0163,0.0259 -0.0163,0.0429 z m 0,0"
     id="path29160" />
</svg>
