<?xml version="1.0" encoding="UTF-8" standalone="no"?>
<svg
   xmlns:dc="http://purl.org/dc/elements/1.1/"
   xmlns:cc="http://creativecommons.org/ns#"
   xmlns:rdf="http://www.w3.org/1999/02/22-rdf-syntax-ns#"
   xmlns:svg="http://www.w3.org/2000/svg"
   xmlns="http://www.w3.org/2000/svg"
   xmlns:sodipodi="http://sodipodi.sourceforge.net/DTD/sodipodi-0.dtd"
   xmlns:inkscape="http://www.inkscape.org/namespaces/inkscape"
   width="0.37864172"
   height="1"
   viewBox="0 0 0.37864172 0.99999996"
   version="1.1"
   id="svg8"
   inkscape:version="1.0.1 (3bc2e813f5, 2020-09-07)"
   sodipodi:docname="flag.svg">
  <defs
     id="defs2" />
  <sodipodi:namedview
     id="base"
     pagecolor="#ffffff"
     bordercolor="#666666"
     borderopacity="1.0"
     inkscape:pageopacity="0.0"
     inkscape:pageshadow="2"
     inkscape:zoom="253.42707"
     inkscape:cx="-0.018972185"
     inkscape:cy="0.51992187"
     inkscape:document-units="px"
     inkscape:current-layer="svg8"
     inkscape:document-rotation="0"
     showgrid="false"
     fit-margin-top="0"
     fit-margin-left="0"
     fit-margin-right="0"
     fit-margin-bottom="0"
     inkscape:window-width="2560"
     inkscape:window-height="1361"
     inkscape:window-x="1911"
     inkscape:window-y="381"
     inkscape:window-maximized="1"
     units="px" />
  <metadata
     id="metadata5">
    <rdf:RDF>
      <cc:Work
         rdf:about="">
        <dc:format>image/svg+xml</dc:format>
        <dc:type
           rdf:resource="http://purl.org/dc/dcmitype/StillImage" />
        <dc:title></dc:title>
      </cc:Work>
    </rdf:RDF>
  </metadata>
  <path
     style="fill:#000000;fill-opacity:1;stroke:none;stroke-width:0.117748"
     d="m 7e-8,0.37531846 c 0.018398,0 0.0335764,0.00184 0.0459951,0.005519 0.0133386,0.00368 0.0248374,0.007819 0.0349563,0.0128786 0.01103884,0.005979 0.02115783,0.0128786 0.0312767,0.0202379 0.009659,0.007359 0.0202379,0.0147184 0.0312767,0.0220777 0.12234714,0.085551 0.18398058,0.18076089 0.18398058,0.2851699 v 0.007359 c -0.00138,0.0340365 -0.00276,0.0611735 -0.00368,0.0809515 -0.00138,0.0206978 -0.00322,0.0386359 -0.005519,0.0533544 -0.00276,0.0156384 -0.006899,0.0312767 -0.0128786,0.0459951 -0.005059,0.0147184 -0.0119587,0.0317366 -0.0202379,0.0515146 -0.007359,0.0133386 -0.0110388,0.0229976 -0.0110388,0.0294369 0,0.007359 0.00414,0.0110388 0.0128786,0.0110388 0.00368,9.2e-4 0.010119,-0.005059 0.0202379,-0.018398 0.009659,-0.0124187 0.019318,-0.0312767 0.0294369,-0.057034 0.0110388,-0.0248373 0.0206978,-0.056114 0.0294369,-0.0938301 0.008279,-0.0367961 0.0128786,-0.0791116 0.0128786,-0.1269466 v -0.007359 c 0,-0.065313 -0.0183981,-0.12648668 -0.0551942,-0.18398058 C 0.31368695,0.49582548 0.2672318,0.43511188 0.18398061,0.33116281 0.12004733,0.24791161 0.0653132,0.14672231 0.0202379,0.02759486 c -0.00138,-0.0036796 -0.00184,-0.0082792 -0.00184,-0.01471845 0,-0.00367961 4.5993e-4,-0.00735922 0.00184,-0.01103883 C 0.02115786,9.1761464e-4 0.0147189,-2.22938e-6 0,-2.22938e-6 Z m 0,0"
     id="path11171" />
</svg>
