<?xml version="1.0" encoding="UTF-8" standalone="no"?>
<svg
   xmlns:dc="http://purl.org/dc/elements/1.1/"
   xmlns:cc="http://creativecommons.org/ns#"
   xmlns:rdf="http://www.w3.org/1999/02/22-rdf-syntax-ns#"
   xmlns:svg="http://www.w3.org/2000/svg"
   xmlns="http://www.w3.org/2000/svg"
   xmlns:sodipodi="http://sodipodi.sourceforge.net/DTD/sodipodi-0.dtd"
   xmlns:inkscape="http://www.inkscape.org/namespaces/inkscape"
   width="0.34053004"
   height="0.99999946"
   viewBox="0 0 0.34053003 0.99999947"
   version="1.1"
   id="svg22658"
   inkscape:version="1.0.1 (3bc2e813f5, 2020-09-07)"
   sodipodi:docname="quarter_rest.svg">
  <defs
     id="defs22652" />
  <sodipodi:namedview
     id="base"
     pagecolor="#ffffff"
     bordercolor="#666666"
     borderopacity="1.0"
     inkscape:pageopacity="0.0"
     inkscape:pageshadow="2"
     inkscape:zoom="179.2"
     inkscape:cx="0.32064025"
     inkscape:cy="1.1460709"
     inkscape:document-units="px"
     inkscape:current-layer="svg22658"
     inkscape:document-rotation="0"
     showgrid="false"
     fit-margin-top="0"
     fit-margin-left="0"
     fit-margin-right="0"
     fit-margin-bottom="0"
     units="px"
     inkscape:window-width="2560"
     inkscape:window-height="1361"
     inkscape:window-x="1911"
     inkscape:window-y="381"
     inkscape:window-maximized="1" />
  <metadata
     id="metadata22655">
    <rdf:RDF>
      <cc:Work
         rdf:about="">
        <dc:format>image/svg+xml</dc:format>
        <dc:type
           rdf:resource="http://purl.org/dc/dcmitype/StillImage" />
        <dc:title></dc:title>
      </cc:Work>
    </rdf:RDF>
  </metadata>
  <path
     style="fill:#000000;fill-opacity:1;stroke:none;stroke-width:0.101331"
     d="M 0.16968516,0.77842924 C 0.15577965,0.75627618 0.13959278,0.73412313 0.12058133,0.71198092 0.10233036,0.69061983 0.08451394,0.66925873 0.0666975,0.64711652 0.04964154,0.62575542 0.03541013,0.60518628 0.02389463,0.58540909 0.01303095,0.56524135 0.00803366,0.54664668 0.00803366,0.53003731 0.00694729,0.48493925 0.04681698,0.41295374 0.12844664,0.3148576 L -0.10128752,0 c -0.0151005,0.00314612 -0.0221619,0.00911291 -0.0221619,0.01740132 7.9304e-4,0 0.005432,0.0062922 0.0142314,0.01898523 0.0097773,0.01186847 0.01977188,0.02689394 0.03172192,0.04589002 0.01271052,0.01898522 0.02379143,0.03916382 0.03324286,0.06012352 0.0097775,0.0201677 0.01466601,0.0387624 0.01586096,0.0553826 0,0.0664483 -0.04432381,0.14042019 -0.13309091,0.22150774 0.0241174,0.0316457 0.0463879,0.0597221 0.06659433,0.0838605 0.01977189,0.022945 0.03802288,0.0443061 0.05388384,0.0632913 0.01586096,0.0189853 0.03009238,0.0363866 0.04280289,0.0522148 0.01271052,0.0158175 0.02411734,0.0308537 0.03487236,0.0458792 -0.02770238,-0.0138431 -0.05344926,-0.0205691 -0.07767525,-0.0205691 -0.02140149,0 -0.03965242,0.003906 -0.05540475,0.0126604 -0.01586095,0.008353 -0.02965782,0.0193866 -0.04117332,0.0332296 -0.0108637,0.0146349 -0.0190114,0.0308537 -0.0253124,0.049047 -0.005432,0.0178027 -0.007605,0.0363866 -0.007605,0.0553826 0,0.0241276 0.007605,0.0478645 0.0237915,0.0712 0.015861,0.0241276 0.0348724,0.0462806 0.0570343,0.0664483 0.0221619,0.0209598 0.03997833,0.0355946 0.05388383,0.0443061 0.01466601,0.009547 0.02574688,0.0158175 0.03324281,0.0189853 0.00760448,0.003146 0.01303637,0.004773 0.01749051,0.004773 0.0054315,0 0.008691,-0.002822 0.0097775,-0.00792 -0.05388386,-0.0530068 -0.08082579,-0.10205375 -0.08082579,-0.14714418 0,-0.0296712 0.0097775,-0.0522148 0.03172192,-0.0680322 0.02216184,-0.0158281 0.04997287,-0.0245289 0.08397623,-0.0253209 0.03563281,7.9223e-4 0.07289526,0.009872 0.11090727,0.0268941 z m 0,0"
     id="path23231" />
</svg>
