<?xml version="1.0" encoding="UTF-8" standalone="no"?>
<svg
   xmlns:dc="http://purl.org/dc/elements/1.1/"
   xmlns:cc="http://creativecommons.org/ns#"
   xmlns:rdf="http://www.w3.org/1999/02/22-rdf-syntax-ns#"
   xmlns:svg="http://www.w3.org/2000/svg"
   xmlns="http://www.w3.org/2000/svg"
   xmlns:sodipodi="http://sodipodi.sourceforge.net/DTD/sodipodi-0.dtd"
   xmlns:inkscape="http://www.inkscape.org/namespaces/inkscape"
   width="1.3107791"
   height="1"
   viewBox="0 0 1.3107792 1"
   version="1.1"
   id="svg27966"
   inkscape:version="1.0.1 (3bc2e813f5, 2020-09-07)"
   sodipodi:docname="quarter_note_part.svg">
  <defs
     id="defs27960" />
  <sodipodi:namedview
     id="base"
     pagecolor="#ffffff"
     bordercolor="#666666"
     borderopacity="1.0"
     inkscape:pageopacity="0.0"
     inkscape:pageshadow="2"
     inkscape:zoom="256"
     inkscape:cx="0.1883702"
     inkscape:cy="0.6870877"
     inkscape:document-units="px"
     inkscape:current-layer="svg27966"
     inkscape:document-rotation="0"
     showgrid="false"
     units="px"
     fit-margin-top="0"
     fit-margin-left="0"
     fit-margin-right="0"
     fit-margin-bottom="0"
     inkscape:window-width="2560"
     inkscape:window-height="1361"
     inkscape:window-x="1911"
     inkscape:window-y="381"
     inkscape:window-maximized="1"
     scale-x="1" />
  <metadata
     id="metadata27963">
    <rdf:RDF>
      <cc:Work
         rdf:about="">
        <dc:format>image/svg+xml</dc:format>
        <dc:type
           rdf:resource="http://purl.org/dc/dcmitype/StillImage" />
        <dc:title></dc:title>
      </cc:Work>
    </rdf:RDF>
  </metadata>
  <path
     style="fill:#000000;fill-opacity:1;stroke:none;stroke-width:0.300703"
     d="M -0.2273939,0.5 C -0.1275284,0.5 -0.0277007,0.4810893 0.0733376,0.443646 0.1767211,0.40582451 0.2718581,0.35552194 0.3599592,0.2934947 0.4468877,0.22995461 0.5173609,0.15960666 0.5714169,0.08207262 0.6242625,0.00340393 0.652482,-0.0790469 0.656,-0.16679274 0.6524745,-0.26664145 0.6101905,-0.34644478 0.5291254,-0.40620272 0.4504057,-0.46482602 0.3470599,-0.49659607 0.2190126,-0.5 c -0.1010382,0.003517 -0.2020386,0.0226929 -0.3054221,0.0612708 -0.1010382,0.0340393 -0.1950026,0.0832073 -0.281931,0.14561271 -0.0845831,0.0635401 -0.15388373,0.13502269 -0.20676707,0.21596067 C -0.62916358,0.00151286 -0.655,0.08245083 -0.655,0.16717095 c 0,0.056354 0.009457,0.1043873 0.0283709,0.14561271 0.0211836,0.0400908 0.0516729,0.0752647 0.0892737,0.10325265 0.0399462,0.026475 0.0857558,0.0480333 0.13625594,0.0612708 C -0.34821609,0.4924357 -0.2906799,0.5 -0.2272426,0.5 Z m 0,0"
     id="path28549" />
</svg>
