<?xml version="1.0" encoding="UTF-8" standalone="no"?>
<svg
   xmlns:dc="http://purl.org/dc/elements/1.1/"
   xmlns:cc="http://creativecommons.org/ns#"
   xmlns:rdf="http://www.w3.org/1999/02/22-rdf-syntax-ns#"
   xmlns:svg="http://www.w3.org/2000/svg"
   xmlns="http://www.w3.org/2000/svg"
   xmlns:sodipodi="http://sodipodi.sourceforge.net/DTD/sodipodi-0.dtd"
   xmlns:inkscape="http://www.inkscape.org/namespaces/inkscape"
   id="svg2"
   viewBox="0 0 0.3498835 1.0000002"
   version="1.1"
   sodipodi:docname="treble_clef.svg"
   width="0.3498835"
   height="1.0000001"
   inkscape:version="1.0.1 (3bc2e813f5, 2020-09-07)">
  <defs
     id="defs8" />
  <sodipodi:namedview
     pagecolor="#ffffff"
     bordercolor="#666666"
     borderopacity="1"
     objecttolerance="10"
     gridtolerance="10"
     guidetolerance="10"
     inkscape:pageopacity="0"
     inkscape:pageshadow="2"
     inkscape:window-width="2560"
     inkscape:window-height="1361"
     id="namedview6"
     showgrid="false"
     inkscape:document-units="px"
     units="px"
     inkscape:zoom="256"
     inkscape:cx="0.084823197"
     inkscape:cy="0.88348994"
     inkscape:window-x="1911"
     inkscape:window-y="381"
     inkscape:window-maximized="1"
     inkscape:current-layer="svg2"
     fit-margin-top="0"
     fit-margin-left="0"
     fit-margin-right="0"
     fit-margin-bottom="0" />
  <path
     id="path26"
     stroke="#000000"
     d="M 0.21647976,7.9844326e-6 C 0.17843267,-9.7982287e-4 0.13393568,0.08987124 0.13541497,0.17089399 0.1357585,0.1955717 0.1435476,0.24562115 0.15491171,0.30847912 0.08324124,0.38265938 1.7136241e-5,0.45878869 1.7136241e-5,0.55867726 -0.00112561,0.65021607 0.05481984,0.76683922 0.18755356,0.7657175 c 0.0203731,-1.4022e-4 0.0387061,-0.002665 0.054992,-0.007011 0.0121355,0.0665316 0.0202049,0.11904182 0.0201558,0.14329887 4.2765e-4,0.0956261 -0.12521124,0.10509053 -0.13123344,0.0501266 0.0264795,-9.1139e-4 0.0475466,-0.0219435 0.0475466,-0.0479533 0,-0.0265706 -0.0219996,-0.0482337 -0.0492993,-0.0482337 -0.0150099,0 -0.0283863,0.00659 -0.03745821,0.0168958 -2.1031e-4,2.1033e-4 -4.5569e-4,4.2065e-4 -6.59e-4,6.3097e-4 -0.0020471,0.002173 -0.0037718,0.004767 -0.0054753,0.007712 -0.0055946,0.009465 -0.009226,0.0230652 -0.0094224,0.0424849 0,0.0800624 0.20243419,0.13159106 0.20243419,-0.0262901 C 0.27944998,0.87613604 0.2703155,0.82222384 0.2570086,0.75429 0.40145021,0.7020603 0.36516279,0.48760265 0.2322537,0.48659311 0.2219479,0.48669827 0.2120138,0.48789711 0.2024582,0.49032311 0.19488653,0.45388819 0.18758167,0.4185262 0.18120185,0.38603157 0.23167193,0.33645884 0.27574125,0.27228985 0.27475277,0.15402622 0.274907,0.06909851 0.24661179,9.9649664e-4 0.21647976,7.9844326e-6 Z M 0.22546029,0.08216647 c 0.0172183,-0.0016616 0.0308891,0.01432288 0.0308891,0.04950961 0.001395,0.0604323 -0.0409425,0.11320892 -0.0913565,0.16628698 -0.004824,-0.0290734 -0.007986,-0.0526294 -0.008329,-0.0666017 0.00143,-0.0944062 0.0400943,-0.14642564 0.0687964,-0.14919489 z m -0.0541155,0.31328749 c 0.006149,0.0316534 0.0127875,0.0650033 0.0194967,0.0985916 -0.0879704,0.0312958 -0.13018883,0.15391307 -0.005475,0.2087859 -0.0760171,-0.0647159 -0.0386009,-0.14132186 0.0162087,-0.15467025 0.0137831,0.0688171 0.0272436,0.13672282 0.0381242,0.19540247 -0.0147715,0.005188 -0.0320109,0.008202 -0.0521456,0.008343 -0.0503439,0 -0.15094754,-0.032039 -0.15094754,-0.15335925 0,-0.1016132 0.07043658,-0.14290627 0.13473854,-0.20309347 z m 0.0427232,0.15051288 c 0.002194,-1.3319e-4 0.004571,-7.711e-5 0.006786,0 0.0915809,0 0.12612263,0.14543713 0.0328662,0.19191815 C 0.24211786,0.6795559 0.2280473,0.61267373 0.21406799,0.54596684 Z"
     style="fill:#000000;stroke:none;stroke-width:0.00701071" />
  <metadata
     id="metadata3">
    <rdf:RDF>
      <cc:Work>
        <dc:format>image/svg+xml</dc:format>
        <dc:type
           rdf:resource="http://purl.org/dc/dcmitype/StillImage" />
        <cc:license
           rdf:resource="http://creativecommons.org/publicdomain/zero/1.0/" />
        <dc:publisher>
          <cc:Agent
             rdf:about="http://openclipart.org/">
            <dc:title>Openclipart</dc:title>
          </cc:Agent>
        </dc:publisher>
        <dc:title></dc:title>
        <dc:date>2006-12-03T12:59:04</dc:date>
        <dc:description>Hollow treble clef for use at drawings</dc:description>
        <dc:source>http://openclipart.org/detail/12473/treble-clef-by-rickvanderzwet-12473</dc:source>
        <dc:creator>
          <cc:Agent>
            <dc:title>rickvanderzwet</dc:title>
          </cc:Agent>
        </dc:creator>
        <dc:subject>
          <rdf:Bag>
            <rdf:li>clef</rdf:li>
            <rdf:li>clip art</rdf:li>
            <rdf:li>clipart</rdf:li>
            <rdf:li>image</rdf:li>
            <rdf:li>line art</rdf:li>
            <rdf:li>media</rdf:li>
            <rdf:li>music</rdf:li>
            <rdf:li>png</rdf:li>
            <rdf:li>public domain</rdf:li>
            <rdf:li>sign</rdf:li>
            <rdf:li>silhouette</rdf:li>
            <rdf:li>svg</rdf:li>
            <rdf:li>treble</rdf:li>
          </rdf:Bag>
        </dc:subject>
      </cc:Work>
      <cc:License
         rdf:about="http://creativecommons.org/publicdomain/zero/1.0/">
        <cc:permits
           rdf:resource="http://creativecommons.org/ns#Reproduction" />
        <cc:permits
           rdf:resource="http://creativecommons.org/ns#Distribution" />
        <cc:permits
           rdf:resource="http://creativecommons.org/ns#DerivativeWorks" />
      </cc:License>
    </rdf:RDF>
  </metadata>
</svg>
