<?xml version="1.0" encoding="UTF-8" standalone="no"?>
<svg
   xmlns:dc="http://purl.org/dc/elements/1.1/"
   xmlns:cc="http://creativecommons.org/ns#"
   xmlns:rdf="http://www.w3.org/1999/02/22-rdf-syntax-ns#"
   xmlns:svg="http://www.w3.org/2000/svg"
   xmlns="http://www.w3.org/2000/svg"
   xmlns:sodipodi="http://sodipodi.sourceforge.net/DTD/sodipodi-0.dtd"
   xmlns:inkscape="http://www.inkscape.org/namespaces/inkscape"
   width="1.2986425"
   height="1"
   viewBox="0 0 1.2986425 1"
   version="1.1"
   id="svg29779"
   inkscape:version="1.0.1 (3bc2e813f5, 2020-09-07)"
   sodipodi:docname="whole_note.svg">
  <defs
     id="defs29773" />
  <sodipodi:namedview
     id="base"
     pagecolor="#ffffff"
     bordercolor="#666666"
     borderopacity="1.0"
     inkscape:pageopacity="0.0"
     inkscape:pageshadow="2"
     inkscape:zoom="126.71353"
     inkscape:cx="0.54777922"
     inkscape:cy="1.2546728"
     inkscape:document-units="px"
     inkscape:current-layer="layer1"
     inkscape:document-rotation="0"
     showgrid="false"
     fit-margin-top="0"
     fit-margin-left="0"
     fit-margin-right="0"
     fit-margin-bottom="0"
     units="px"
     inkscape:window-width="2560"
     inkscape:window-height="1361"
     inkscape:window-x="1911"
     inkscape:window-y="381"
     inkscape:window-maximized="1" />
  <metadata
     id="metadata29776">
    <rdf:RDF>
      <cc:Work
         rdf:about="">
        <dc:format>image/svg+xml</dc:format>
        <dc:type
           rdf:resource="http://purl.org/dc/dcmitype/StillImage" />
        <dc:title></dc:title>
      </cc:Work>
    </rdf:RDF>
  </metadata>
  <g
     inkscape:label="Ebene 1"
     inkscape:groupmode="layer"
     id="layer1"
     transform="translate(-183.48714,-144.98169)">
    <path
       style="fill:#000000;fill-opacity:1;stroke:none;stroke-width:0.28963"
       d="m 182.83769,145.15145 c 0,0.0543 0.0102,0.10068 0.0317,0.14027 0.0238,0.0419 0.0566,0.0769 0.0995,0.10407 0.0419,0.0294 0.0905,0.0509 0.14484,0.0633 0.0543,0.0147 0.11315,0.0226 0.17651,0.0226 0.10523,0 0.2082,-0.017 0.30777,-0.0498 0.0995,-0.0305 0.1901,-0.0747 0.27156,-0.13122 0.0814,-0.0577 0.14597,-0.12443 0.19462,-0.19909 0.0475,-0.0758 0.0724,-0.15837 0.0724,-0.24887 0,-0.0566 -0.0124,-0.1086 -0.0362,-0.15385 -0.0249,-0.0453 -0.0713,-0.0916 -0.1403,-0.14027 -0.0667,-0.0509 -0.17652,-0.0769 -0.3304,-0.0769 -0.0973,0 -0.19236,0.0204 -0.28514,0.0588 -0.0939,0.0362 -0.17992,0.0882 -0.25799,0.15385 -0.0758,0.0634 -0.13578,0.13574 -0.18104,0.21719 -0.0453,0.0781 -0.0679,0.15837 -0.0679,0.23982 z m 1.00478,-0.55656 c 0.14144,0 0.21272,0.0577 0.21272,0.17195 -0.003,0.0271 -0.0158,0.0577 -0.0362,0.0905 -0.0181,0.0306 -0.0441,0.0634 -0.0769,0.0995 -0.0339,0.0328 -0.0724,0.0656 -0.11767,0.0996 -0.043,0.0328 -0.0894,0.0645 -0.14031,0.095 -0.0486,0.0328 -0.0984,0.0611 -0.14936,0.086 -0.052,0.0272 -0.10297,0.0498 -0.15388,0.0679 -0.0487,0.0204 -0.0939,0.0373 -0.13579,0.0498 -0.043,0.0113 -0.0803,0.0181 -0.11315,0.0181 -0.13917,0 -0.2082,-0.0588 -0.2082,-0.17647 0,-0.0249 0.009,-0.0532 0.0271,-0.086 0.0181,-0.0339 0.043,-0.0679 0.0769,-0.10408 0.0362,-0.0328 0.0747,-0.0656 0.11767,-0.0995 0.0453,-0.0328 0.0928,-0.0645 0.14483,-0.095 0.0509,-0.0294 0.10184,-0.0566 0.15388,-0.0814 0.0509,-0.0272 0.10071,-0.0498 0.14937,-0.0679 0.0509,-0.0204 0.0962,-0.0373 0.13578,-0.0498 0.0419,-0.0113 0.0792,-0.0181 0.11315,-0.0181 z m 0,0"
       id="path30352" />
  </g>
</svg>
