<?xml version="1.0" encoding="UTF-8" standalone="no"?>
<svg
   xmlns:dc="http://purl.org/dc/elements/1.1/"
   xmlns:cc="http://creativecommons.org/ns#"
   xmlns:rdf="http://www.w3.org/1999/02/22-rdf-syntax-ns#"
   xmlns:svg="http://www.w3.org/2000/svg"
   xmlns="http://www.w3.org/2000/svg"
   xmlns:sodipodi="http://sodipodi.sourceforge.net/DTD/sodipodi-0.dtd"
   xmlns:inkscape="http://www.inkscape.org/namespaces/inkscape"
   width="1.2986425"
   height="1"
   viewBox="0 0 1.2986425 1"
   version="1.1"
   id="svg29779"
   inkscape:version="1.0.1 (3bc2e813f5, 2020-09-07)"
   sodipodi:docname="half_note_part.svg">
  <defs
     id="defs29773" />
  <sodipodi:namedview
     id="base"
     pagecolor="#ffffff"
     bordercolor="#666666"
     borderopacity="1.0"
     inkscape:pageopacity="0.0"
     inkscape:pageshadow="2"
     inkscape:zoom="126.71353"
     inkscape:cx="0.54777922"
     inkscape:cy="1.2546728"
     inkscape:document-units="px"
     inkscape:current-layer="layer1"
     inkscape:document-rotation="0"
     showgrid="false"
     fit-margin-top="0"
     fit-margin-left="0"
     fit-margin-right="0"
     fit-margin-bottom="0"
     units="px"
     inkscape:window-width="2560"
     inkscape:window-height="1361"
     inkscape:window-x="1911"
     inkscape:window-y="381"
     inkscape:window-maximized="1" />
  <metadata
     id="metadata29776">
    <rdf:RDF>
      <cc:Work
         rdf:about="">
        <dc:format>image/svg+xml</dc:format>
        <dc:type
           rdf:resource="http://purl.org/dc/dcmitype/StillImage" />
        <dc:title></dc:title>
      </cc:Work>
    </rdf:RDF>
  </metadata>
  <g
     inkscape:label="Ebene 1"
     inkscape:groupmode="layer"
     id="layer1"
     transform="translate(-183.48714,-144.98169)">
    <g
       style="fill:#000000;fill-opacity:1"
       id="g22775"
       transform="matrix(1.0945238,0,0,1.0945238,-278.74121,-322.43266)">
      <g
         id="use22773"
         transform="matrix(0.26458333,0,0,0.26458333,422.31,427.50702)">
        <path
           style="stroke:none"
           d="m 0,0.578125 c 0,0.1875 0.0351563,0.347656 0.109375,0.484375 0.082031,0.144531 0.195313,0.265625 0.34375,0.359375 0.144531,0.101563 0.3125,0.175781 0.5,0.21875 C 1.140625,1.691406 1.34375,1.71875 1.5625,1.71875 1.925781,1.71875 2.28125,1.660156 2.625,1.546875 2.96875,1.441406 3.28125,1.289063 3.5625,1.09375 3.84375,0.894531 4.066406,0.664063 4.234375,0.40625 c 0.164063,-0.261719 0.25,-0.546875 0.25,-0.859375 0,-0.195313 -0.042969,-0.375 -0.125,-0.53125 C 4.273438,-1.140625 4.113281,-1.300781 3.875,-1.46875 3.644531,-1.644531 3.265625,-1.734375 2.734375,-1.734375 2.398438,-1.734375 2.070313,-1.664063 1.75,-1.53125 1.425781,-1.40625 1.128906,-1.226563 0.859375,-1 0.597656,-0.78125 0.390625,-0.53125 0.234375,-0.25 0.078125,0.0195313 0,0.296875 0,0.578125 Z M 3.46875,-1.34375 c 0.488281,0 0.734375,0.199219 0.734375,0.59375 -0.011719,0.09375 -0.054687,0.199219 -0.125,0.3125 C 4.015625,-0.332031 3.925781,-0.21875 3.8125,-0.09375 3.695313,0.0195313 3.5625,0.132813 3.40625,0.25 3.257813,0.363281 3.097656,0.472656 2.921875,0.578125 2.753906,0.691406 2.582031,0.789063 2.40625,0.875 2.226563,0.96875 2.050781,1.046875 1.875,1.109375 1.707031,1.179688 1.550781,1.238281 1.40625,1.28125 1.257813,1.320313 1.128906,1.34375 1.015625,1.34375 c -0.480469,0 -0.71875,-0.203125 -0.71875,-0.609375 0,-0.085937 0.03125,-0.183594 0.09375,-0.296875 0.0625,-0.117187 0.148438,-0.234375 0.265625,-0.359375 0.125,-0.1132813 0.257813,-0.226563 0.40625,-0.34375 0.15625,-0.113281 0.320313,-0.222656 0.5,-0.328125 0.175781,-0.101563 0.351563,-0.195313 0.53125,-0.28125 0.175781,-0.09375 0.347656,-0.171875 0.515625,-0.234375 0.175781,-0.070313 0.332031,-0.128906 0.46875,-0.171875 0.144531,-0.039063 0.273438,-0.0625 0.390625,-0.0625 z m 0,0"
           id="path30352" />
      </g>
    </g>
  </g>
</svg>
