<?xml version="1.0" encoding="UTF-8" standalone="no"?>
<svg
   xmlns:dc="http://purl.org/dc/elements/1.1/"
   xmlns:cc="http://creativecommons.org/ns#"
   xmlns:rdf="http://www.w3.org/1999/02/22-rdf-syntax-ns#"
   xmlns:svg="http://www.w3.org/2000/svg"
   xmlns="http://www.w3.org/2000/svg"
   xmlns:sodipodi="http://sodipodi.sourceforge.net/DTD/sodipodi-0.dtd"
   xmlns:inkscape="http://www.inkscape.org/namespaces/inkscape"
   width="1.3007812"
   height="1"
   viewBox="0 0 1.3007812 1"
   version="1.1"
   id="svg29779"
   inkscape:version="1.0.1 (3bc2e813f5, 2020-09-07)"
   sodipodi:docname="whole_note.svg">
  <defs
     id="defs29773" />
  <sodipodi:namedview
     id="base"
     pagecolor="#ffffff"
     bordercolor="#666666"
     borderopacity="1.0"
     inkscape:pageopacity="0.0"
     inkscape:pageshadow="2"
     inkscape:zoom="126.71353"
     inkscape:cx="0.58260814"
     inkscape:cy="0.80765475"
     inkscape:document-units="px"
     inkscape:current-layer="layer1"
     inkscape:document-rotation="0"
     showgrid="false"
     fit-margin-top="0"
     fit-margin-left="0"
     fit-margin-right="0"
     fit-margin-bottom="0"
     units="px"
     inkscape:window-width="1278"
     inkscape:window-height="1351"
     inkscape:window-x="1912"
     inkscape:window-y="390"
     inkscape:window-maximized="0" />
  <metadata
     id="metadata29776">
    <rdf:RDF>
      <cc:Work
         rdf:about="">
        <dc:format>image/svg+xml</dc:format>
        <dc:type
           rdf:resource="http://purl.org/dc/dcmitype/StillImage" />
        <dc:title></dc:title>
      </cc:Work>
    </rdf:RDF>
  </metadata>
  <g
     inkscape:label="Ebene 1"
     inkscape:groupmode="layer"
     id="layer1"
     transform="translate(-182.83675,-144.48169)">
    <path
       id="path30352"
       style="fill:#000000;fill-opacity:1;stroke:none;stroke-width:0.28963;image-rendering:auto"
       d="m 0.14257812,-0.5 c -0.09729999,0 -0.19237625,0.0201938 -0.28515624,0.0585938 -0.0939,0.0362 -0.17974251,0.0886469 -0.2578125,0.15429687 -0.0758,0.0634 -0.13638063,0.13534688 -0.18164063,0.21679688 -0.0453,0.0781 -0.0683594,0.15878438 -0.0683594,0.24023438 0,0.0543 0.0117031,0.101035 0.0332031,0.140625 0.0238,0.0419 0.0567094,0.0763456 0.0996094,0.10351562 0.0419,0.0294 0.0901913,0.0501 0.14453124,0.0625 0.0543,0.0147 0.11242125,0.0234375 0.17578126,0.0234375 0.10523,0 0.20902374,-0.0160281 0.30859374,-0.0488281 0.0995,-0.0305 0.19002438,-0.0762925 0.27148438,-0.1328125 0.0814,-0.0577 0.14470938,-0.12455875 0.19335938,-0.19921876 0.0475,-0.0758 0.0742187,-0.15754687 0.0742187,-0.24804687 0,-0.0566 -0.0133094,-0.10904687 -0.0371094,-0.15429687 -0.0249,-0.0453 -0.071625,-0.091955 -0.140625,-0.140625 C 0.40595625,-0.47472813 0.29645812,-0.5 0.14257812,-0.5 Z m 0.21289063,0.11328125 c 0.14144,0 0.21289063,0.057625 0.21289063,0.171875 -0.003,0.0271 -0.0167094,0.0570438 -0.0371094,0.0898438 -0.0181,0.0306 -0.0433719,0.06350938 -0.0761719,0.09960937 -0.0339,0.0328 -0.0719175,0.06560938 -0.1171875,0.09960938 -0.043,0.0328 -0.089715,0.06520313 -0.140625,0.09570313 -0.0486,0.0328 -0.09943062,0.0610375 -0.15039062,0.0859375 -0.052,0.0272 -0.10143375,0.0502594 -0.15234375,0.0683594 -0.0487,0.0204 -0.0948287,0.0363281 -0.13671875,0.0488281 -0.043,0.0113 -0.0804313,0.0175781 -0.11328125,0.0175781 -0.13917,0 -0.20703125,-0.0581113 -0.20703125,-0.17578125 0,-0.0249 0.007291,-0.0531375 0.0253906,-0.0859375 0.0181,-0.0339 0.044225,-0.06733563 0.078125,-0.10351562 0.0362,-0.0328 0.0742175,-0.06570938 0.1171875,-0.09960938 0.0453,-0.0328 0.0925013,-0.06520313 0.14453126,-0.09570313 0.0509,-0.0294 0.10225687,-0.0552781 0.15429687,-0.0800781 0.0509,-0.0272 0.0997775,-0.0502594 0.1484375,-0.0683594 0.0509,-0.0204 0.0971387,-0.0382812 0.13671875,-0.0507812 0.0419,-0.0113 0.0793313,-0.0175781 0.11328131,-0.0175782 z"
       transform="translate(183.48714,144.98169)"
       sodipodi:nodetypes="scccscccscccsccssccccccccsscccccccs" />
  </g>
</svg>
