<?xml version="1.0" encoding="UTF-8" standalone="no"?>
<svg
   xmlns:dc="http://purl.org/dc/elements/1.1/"
   xmlns:cc="http://creativecommons.org/ns#"
   xmlns:rdf="http://www.w3.org/1999/02/22-rdf-syntax-ns#"
   xmlns:svg="http://www.w3.org/2000/svg"
   xmlns="http://www.w3.org/2000/svg"
   xmlns:sodipodi="http://sodipodi.sourceforge.net/DTD/sodipodi-0.dtd"
   xmlns:inkscape="http://www.inkscape.org/namespaces/inkscape"
   width="1.3007812"
   height="1"
   viewBox="0 0 1.3007812 1"
   version="1.1"
   id="svg29779"
   inkscape:version="1.0.1 (3bc2e813f5, 2020-09-07)"
   sodipodi:docname="whole_note.svg">
  <defs
     id="defs29773" />
  <sodipodi:namedview
     id="base"
     pagecolor="#ffffff"
     bordercolor="#666666"
     borderopacity="1.0"
     inkscape:pageopacity="0.0"
     inkscape:pageshadow="2"
     inkscape:zoom="126.71353"
     inkscape:cx="0.58260814"
     inkscape:cy="0.80765475"
     inkscape:document-units="px"
     inkscape:current-layer="svg29779"
     inkscape:document-rotation="0"
     showgrid="false"
     fit-margin-top="0"
     fit-margin-left="0"
     fit-margin-right="0"
     fit-margin-bottom="0"
     units="px"
     inkscape:window-width="2560"
     inkscape:window-height="1361"
     inkscape:window-x="1911"
     inkscape:window-y="381"
     inkscape:window-maximized="1" />
  <metadata
     id="metadata29776">
    <rdf:RDF>
      <cc:Work
         rdf:about="">
        <dc:format>image/svg+xml</dc:format>
        <dc:type
           rdf:resource="http://purl.org/dc/dcmitype/StillImage" />
        <dc:title></dc:title>
      </cc:Work>
    </rdf:RDF>
  </metadata>
  <path
     id="path30352"
     style="fill:#000000;fill-opacity:1;stroke:none;stroke-width:0.289654;image-rendering:auto"
     d="m 0.14260194,-0.5 c -0.09731634,0 -0.19240856,0.0201938 -0.28520413,0.0585938 -0.0939158,0.0362 -0.17977269,0.0886469 -0.2578558,0.15429687 -0.0758127,0.0634 -0.13640353,0.13534688 -0.18167113,0.21679688 -0.0453076,0.0781 -0.0683709,0.15878438 -0.0683709,0.24023438 0,0.0543 0.0117051,0.101035 0.0332087,0.140625 0.023804,0.0419 0.0567189,0.0763456 0.0996261,0.10351562 0.041907,0.0294 0.0902065,0.0501 0.14455552,0.0625 0.0543091,0.0147 0.11244013,0.0234376 0.17581078,0.0234376 0.10524767,0 0.20905884,-0.0160282 0.30864556,-0.0488282 0.0995167,-0.0305 0.19005629,-0.0762925 0.27153,-0.1328125 0.0814137,-0.0577 0.14473371,-0.12455875 0.19339188,-0.19921876 0.047508,-0.0758 0.0742315,-0.15754687 0.0742315,-0.24804687 0,-0.0566 -0.0133112,-0.10904687 -0.0371152,-0.15429687 -0.0249042,-0.0453 -0.071637,-0.091955 -0.14064862,-0.140625 C 0.40602435,-0.47472813 0.29650778,-0.5 0.14260194,-0.5 Z m 0.21292643,0.11328125 c 0.14146375,0 0.21292635,0.057625 0.21292635,0.171875 -0.003,0.0271 -0.0167118,0.0570438 -0.0371152,0.0898438 -0.018103,0.0306 -0.0433793,0.0635094 -0.0761848,0.0996094 -0.0339057,0.0328 -0.0719301,0.0656094 -0.1172072,0.0996094 -0.0430072,0.0328 -0.0897301,0.0652031 -0.14064862,0.0957031 -0.0486082,0.0328 -0.09944729,0.0610375 -0.15041587,0.0859375 -0.05200874,0.0272 -0.10145079,0.0502594 -0.15236934,0.0683594 -0.0487082,0.0204 -0.0948446,0.0363281 -0.13674171,0.0488281 -0.0430072,0.0113 -0.0804448,0.0175781 -0.11330027,0.0175781 -0.13919337,0 -0.20706602,-0.0581113 -0.20706602,-0.17578125 0,-0.0249 0.007292,-0.0531375 0.0253949,-0.0859375 0.018103,-0.0339 0.0442324,-0.0673356 0.0781381,-0.10351562 0.0362061,-0.0328 0.07423,-0.0657094 0.11720718,-0.0996094 0.0453076,-0.0328 0.0925168,-0.0652031 0.14455554,-0.0957031 0.0509085,-0.0294 0.10227404,-0.0552781 0.15432278,-0.0800781 0.05090855,-0.0272 0.09979426,-0.0502594 0.14846243,-0.0683594 0.0509085,-0.0204 0.097155,-0.0382812 0.13674171,-0.0507812 0.041907,-0.0113 0.0793446,-0.0175781 0.11330004,-0.0175782 z"
     sodipodi:nodetypes="scccscccscccsccssccccccccsscccccccs" />
</svg>
